<svg xmlns="http://www.w3.org/2000/svg" viewBox="0 0 32 32" width="32" height="32">
  <!-- Background circle -->
  <circle cx="16" cy="16" r="15" fill="#136a8a" stroke="#267871" stroke-width="2"/>
  
  <!-- Mountain peaks -->
  <path d="M6 20 L12 12 L16 16 L20 10 L26 18 L26 26 L6 26 Z" fill="#267871"/>
  <path d="M6 22 L10 16 L14 18 L18 14 L22 16 L26 20 L26 26 L6 26 Z" fill="#2d8f47"/>
  
  <!-- Hiking trail -->
  <path d="M8 24 Q16 22 24 24" stroke="#ffffff" stroke-width="1.5" fill="none" stroke-dasharray="2,1"/>
  
  <!-- Small trees -->
  <circle cx="10" cy="22" r="1" fill="#2d8f47"/>
  <circle cx="22" cy="20" r="1" fill="#2d8f47"/>
  
  <!-- Hiking figure -->
  <circle cx="16" cy="18" r="1.5" fill="#ffffff"/>
  <path d="M16 19.5 L16 23 M14 21 L18 21 M15 23 L15 25 M17 23 L17 25" stroke="#ffffff" stroke-width="1" stroke-linecap="round"/>
</svg>